<?xml version="1.0" encoding="UTF-8"?>
<svg width="40px" height="40px" viewBox="0 0 40 40" version="1.1" xmlns="http://www.w3.org/2000/svg" xmlns:xlink="http://www.w3.org/1999/xlink">
    <title>FB</title>
    <defs>
        <polygon id="path-1" points="0 0 39.9999961 0 39.9999961 39.6950063 0 39.6950063"></polygon>
    </defs>
    <g id="FB" stroke="none" stroke-width="1" fill="none" fill-rule="evenodd">
        <g id="share_facebook_icon">
            <g id="Group-3">
                <mask id="mask-2" fill="white">
                    <use xlink:href="#path-1"></use>
                </mask>
                <g id="Clip-2"></g>
                <path d="M39.9999961,19.9688569 C39.9999961,8.94035363 31.0456992,0 19.9999961,0 C8.95429297,0 -3.90625e-06,8.94035363 -3.90625e-06,19.9688569 C-3.90625e-06,29.9358906 7.31370703,38.1970691 16.8749961,39.6950063 L16.8749961,25.7411046 L11.7968711,25.7411046 L11.7968711,19.9688569 L16.8749961,19.9688569 L16.8749961,15.5694681 C16.8749961,10.5647733 19.8608555,7.80033472 24.4292539,7.80033472 C26.6174961,7.80033472 28.9062461,8.19035145 28.9062461,8.19035145 L28.9062461,13.1045623 L26.3842539,13.1045623 C23.8998008,13.1045623 23.1249961,14.6438414 23.1249961,16.2230191 L23.1249961,19.9688569 L28.6718711,19.9688569 L27.7851523,25.7411046 L23.1249961,25.7411046 L23.1249961,39.6950063 C32.6862852,38.1970691 39.9999961,29.9358906 39.9999961,19.9688569" id="Fill-1" fill="#1877F2" mask="url(#mask-2)"></path>
            </g>
            <path d="M27.9109758,25.7331895 L28.8016235,19.9323984 L23.2301708,19.9323984 L23.2301708,16.1680378 C23.2301708,14.5810511 24.0084086,13.0341604 26.5038701,13.0341604 L29.037037,13.0341604 L29.037037,8.09564905 C29.037037,8.09564905 26.7381458,7.7037037 24.5402077,7.7037037 C19.9516063,7.7037037 16.9524776,10.4818123 16.9524776,15.5112549 L16.9524776,19.9323984 L11.8518519,19.9323984 L11.8518519,25.7331895 L16.9524776,25.7331895 L16.9524776,39.7560924 C17.9752708,39.9164373 19.0234886,40 20.0913242,40 C21.1591598,40 22.2074169,39.9164373 23.2301708,39.7560924 L23.2301708,25.7331895 L27.9109758,25.7331895 Z" id="Fill-4" fill="#FFFFFF"></path>
        </g>
    </g>
</svg>