<?xml version="1.0" encoding="UTF-8"?>
<svg width="40px" height="40px" viewBox="0 0 40 40" version="1.1" xmlns="http://www.w3.org/2000/svg" xmlns:xlink="http://www.w3.org/1999/xlink">
    <title>line</title>
    <g id="line" stroke="none" stroke-width="1" fill="none" fill-rule="evenodd">
        <g id="share_line_icon">
            <circle id="Oval" fill="#3AAE37" cx="20" cy="20" r="20"></circle>
            <path d="M29.9151091,10.9966578 C27.3840045,8.94236524 23.8954616,7.66993952 20.0536871,7.66993952 C16.211811,7.66993952 12.7228624,8.94242358 10.1914281,10.9967846 C7.63706722,13.0697706 6.05485422,15.9383403 6.05485422,19.1072932 C6.05485422,21.9405509 7.30373655,24.5409905 9.39711338,26.5455235 C11.4784867,28.5385818 14.3975172,29.9410803 17.7494643,30.3897984 C17.9721443,30.4376708 18.2357107,30.5129847 18.4351466,30.6245474 C18.5415142,30.6840734 18.6234392,30.7487222 18.6500384,30.8144494 L18.6505776,30.8142397 C18.6971865,30.9317939 18.7124332,31.1002161 18.7121037,31.2751099 C18.7116844,31.4669893 18.690986,31.6661777 18.670018,31.8259722 L18.477472,32.9862349 L18.4769628,32.986145 L18.4719904,33.0142153 C18.4349069,33.2225414 18.3718233,33.5773311 18.5048801,33.893506 C18.691046,34.3358932 19.1449425,34.6091063 20.2105948,34.1604592 C21.0959539,33.787126 23.7573672,32.1937645 26.3605739,30.2694888 C28.1184694,28.9700705 29.8599207,27.5136174 31.0308755,26.1673869 C31.212698,25.9682578 31.3859838,25.7687098 31.5509107,25.5685913 L31.6200751,25.4889337 L31.6161511,25.4889337 C32.3417343,24.5961036 32.901158,23.6924277 33.2998802,22.7642095 C33.8044298,21.5896262 34.0512532,20.3796928 34.0512532,19.1073 C34.0512532,15.9382456 32.4692786,13.0697064 29.9151105,10.9966646 L29.9151091,10.9966578 Z" id="Path" fill="#FFFFFE"></path>
            <path d="M10.9284274,18.9758468 C10.9284274,18.056492 10.9243952,17.1371372 10.9324597,16.2137501 C10.9364919,15.8185888 11.2510081,15.5202017 11.6461694,15.5242339 C12.0372984,15.5282662 12.34375,15.8306855 12.3518145,16.2298791 C12.3558468,16.5242339 12.3518145,16.8185888 12.3518145,17.1169759 C12.3518145,18.3710081 12.3558468,19.6290726 12.3477823,20.8831049 C12.3477823,21.0282662 12.3760081,21.072621 12.5332661,21.072621 C13.1502016,21.0605243 13.7671371,21.0645565 14.3881048,21.0685888 C14.96875,21.072621 15.3195565,21.6331049 15.0453629,22.1169759 C14.9122984,22.3508468 14.7066532,22.4960081 14.4243952,22.5000404 C13.4969758,22.5040726 12.5695565,22.5040726 11.6421371,22.5000404 C11.21875,22.4960081 10.9324597,22.181492 10.9324597,21.7379436 C10.9284274,20.8145565 10.9324597,19.8952017 10.9284274,18.9758468 L10.9284274,18.9758468 L10.9284274,18.9758468 Z" id="Shape" fill="#3AAE37"></path>
            <path d="M17.2620968,19 L17.2620968,21.7217742 C17.2620968,22.1693548 16.9717742,22.483871 16.5604839,22.483871 C16.1572581,22.483871 15.8508065,22.1612903 15.8508065,21.7217742 C15.8467742,19.8991935 15.8467742,18.0806452 15.8467742,16.2580645 C15.8467742,15.8346774 16.1532258,15.5241935 16.5604839,15.5241935 C16.9758065,15.5241935 17.2620968,15.8225806 17.2620968,16.2580645 L17.2620968,19 L17.2620968,19 Z" id="Shape" fill="#3AAE37"></path>
            <path d="M25,18.9475806 L25,16.3064516 C25,15.766129 25.2741935,15.4919355 25.8145161,15.4879032 C26.6733871,15.483871 27.5362903,15.483871 28.3951613,15.483871 C28.875,15.483871 29.1451613,15.6895161 29.2016129,16.0927419 C29.266129,16.5524194 28.9395161,16.9072581 28.4435484,16.9112903 C27.8306452,16.9153226 27.2217742,16.9153226 26.608871,16.9072581 C26.4637097,16.9072581 26.4193548,16.9274194 26.4274194,17.0927419 C26.4516129,17.4193548 26.4395161,17.75 26.4314516,18.0806452 C26.4274194,18.2177419 26.4717742,18.25 26.6008065,18.25 C27.1935484,18.2419355 27.7822581,18.2459677 28.375,18.25 C28.5766129,18.25 28.7782258,18.2822581 28.9395161,18.4153226 C29.1975806,18.625 29.2822581,18.9193548 29.1774194,19.2217742 C29.0846774,19.4919355 28.7983871,19.6854839 28.4677419,19.6895161 C27.8629032,19.6935484 27.2580645,19.6935484 26.6532258,19.6854839 C26.4879032,19.6814516 26.4233871,19.7056452 26.4354839,19.8951613 C26.4596774,20.2016129 26.4556452,20.5120968 26.4395161,20.8225806 C26.4274194,21.0120968 26.5,21.0403226 26.6653226,21.0362903 C27.2580645,21.0282258 27.8467742,21.0322581 28.4395161,21.0322581 C28.8790323,21.0322581 29.2137097,21.3387097 29.2217742,21.75 C29.2298387,22.1572581 28.891129,22.4758065 28.4475806,22.4758065 L25.8266129,22.4758065 C25.2983871,22.4758065 25,22.1774194 25,21.6572581 L25,18.9475806 L25,18.9475806 Z" id="Shape" fill="#3AAE37"></path>
            <path d="M23.9919355,19.846152 C23.9919355,18.6364746 23.9959677,17.4308294 23.9959677,16.221152 C23.9879032,16.2090552 23.9758065,16.1969585 23.9758065,16.1848617 C23.9032258,15.7251843 23.625,15.4953456 23.1814516,15.5316359 C22.8104839,15.5638939 22.5483871,15.8784101 22.5483871,16.3017972 C22.5483871,16.7453456 22.5564516,19.0114746 22.5564516,19.705023 C22.2459677,19.2977649 20.3709677,16.7614746 19.7258065,15.8824423 C19.5282258,15.6163133 19.2822581,15.4751843 18.9475806,15.5397004 C18.6370968,15.6001843 18.4596774,15.8058294 18.3870968,16.1042165 C18.391129,17.0840552 18.391129,18.0598617 18.3951613,19.0397004 C18.3991935,19.9388939 18.3991935,20.846152 18.4032258,21.7453456 C18.3991935,21.7493778 18.3991935,21.7493778 18.3951613,21.7534101 C18.375,22.1647004 18.6612903,22.487281 19.0604839,22.4993778 C19.4274194,22.5155068 19.7903226,22.1969585 19.7983871,21.8259907 C19.8104839,21.3501843 19.8104839,18.4469585 19.8104839,18.4469585 C19.8266129,18.2816359 19.8830645,18.3784101 19.9193548,18.4348617 C20.1370968,18.7292165 22.0887097,21.3864746 22.6370968,22.1324423 C22.8629032,22.4388939 23.1733871,22.5679262 23.4717742,22.4792165 C23.7782258,22.3905068 23.983871,22.1163133 23.9919355,21.7453456 C24,21.330023 23.983871,20.9106681 23.9798387,20.4953456 C23.9798387,20.2776036 23.9879032,20.0638939 23.9919355,19.846152 L23.9919355,19.846152 Z M24.0050868,16.3416855 C23.9897022,16.3263009 23.9743176,16.3109163 23.9435484,16.3109163 L23.9435484,16.3109163 C23.958933,16.2955317 23.9897022,16.2647624 24.0050868,16.2493778 L24.0050868,16.3416855 L24.0050868,16.3416855 Z" id="Shape" fill="#3AAE37"></path>
        </g>
    </g>
</svg>