<?xml version="1.0" encoding="UTF-8"?>
<svg width="161px" height="54px" viewBox="0 0 161 54" version="1.1" xmlns="http://www.w3.org/2000/svg" xmlns:xlink="http://www.w3.org/1999/xlink">
    <title>Logo</title>
    <g id="Symbols" stroke="none" stroke-width="1" fill="none" fill-rule="evenodd">
        <g id="Header/Header-Copy" transform="translate(-149.000000, -56.000000)" fill="#FF8800">
            <g id="Logo" transform="translate(150.000000, 56.000000)">
                <path d="M13.4473113,48.3136326 L10.2314172,48.3136326 C10.549298,49.2279855 11.1087682,50.0321122 11.9098278,50.7249629 C12.6165828,50.000619 13.1294305,49.1964923 13.4473113,48.3136326 L13.4473113,48.3136326 Z M8.56996026,48.3136326 L8.56996026,47.3845828 L14.5959205,47.3845828 L14.5959205,48.2674425 C14.2663841,49.4641846 13.6708874,50.5097593 12.8115497,51.402067 C13.589298,51.9175059 14.5196291,52.3794063 15.6036026,52.7888181 L14.9498278,53.7346643 C13.7715497,53.2402208 12.7871788,52.7048362 11.9988344,52.1274606 C11.1861192,52.7573249 10.2017483,53.2937593 9.04784106,53.7346643 L8.39300662,52.8518045 C9.50029139,52.4213973 10.4136689,51.9385014 11.1320795,51.402067 C10.1551258,50.4992615 9.48969536,49.4704833 9.13578808,48.3136326 L8.56996026,48.3136326 Z M3.4626755,43.5560579 L12.1927417,43.5560579 L12.1927417,42.4999855 L3.4626755,42.4999855 L3.4626755,43.5560579 Z M3.4637351,41.6958588 L12.1938013,41.6958588 L12.1938013,40.688076 L3.4637351,40.688076 L3.4637351,41.6958588 Z M2.84492715,51.7337955 C4.17578808,51.6498136 5.36572185,51.5553339 6.41472848,51.4493068 L6.41472848,50.3785376 L2.84492715,50.3785376 L2.84492715,51.7337955 Z M2.84492715,49.5429176 L6.41472848,49.5429176 L6.41472848,48.3619222 L2.84492715,48.3619222 L2.84492715,49.5429176 Z M2.84492715,47.5105557 L6.41472848,47.5105557 L6.41472848,46.3285104 L2.84492715,46.3285104 L2.84492715,47.5105557 Z M2.24413245,44.3759312 L13.4123444,44.3759312 L13.4123444,39.8377593 L2.24413245,39.8377593 L2.24413245,44.3759312 Z M-0.000105960265,45.4152072 L15.5855894,45.4152072 L15.5855894,46.3285104 L7.65128477,46.3285104 L7.65128477,51.3086371 L8.67698013,51.1658679 L8.67698013,52.0644742 L7.65128477,52.22299 L7.65128477,53.7504109 L6.41472848,53.7504109 L6.41472848,52.36261 C4.63565563,52.5421213 2.56837086,52.6953882 0.21181457,52.8213611 L0.0528741722,51.8429719 L1.69631788,51.7810353 L1.69631788,46.3285104 L-0.000105960265,46.3285104 L-0.000105960265,45.4152072 Z" id="Fill-1" stroke="#FF8800" stroke-width="0.2"></path>
                <path d="M20.871508,43.4143385 L27.7451504,43.4143385 C27.8754816,42.5430262 27.9517729,41.5919312 27.9750842,40.5621032 L27.9750842,39.2855783 L29.2826339,39.2855783 L29.2826339,40.3101575 C29.2826339,41.31899 29.2063425,42.3530172 29.0537597,43.4143385 L36.3872696,43.4143385 L36.3872696,44.5166009 L29.4246206,44.5166009 C30.6611769,48.0774335 33.0940246,50.8194425 36.7221041,52.7426281 L35.9274021,53.6559312 C32.3692564,51.7023023 29.9311107,48.9497955 28.6119054,45.4005104 C27.5162763,49.2227367 25.0834286,52.0119855 21.3133623,53.7661575 L20.5186604,52.8213611 C24.2760114,51.1721665 26.6145544,48.4039131 27.5332299,44.5166009 L20.871508,44.5166009 L20.871508,43.4143385 Z" id="Fill-4" stroke="#FF8800" stroke-width="0.2"></path>
                <path d="M48.3168969,44.8168362 L55.1375591,44.8168362 L55.1375591,45.824619 C53.500473,47.2218679 52.2745128,48.3461756 51.4617975,49.1964923 C50.6851088,49.9848724 50.1489499,50.5937412 49.8543803,51.0241484 C49.5714664,51.4136145 49.4305393,51.7065014 49.4305393,51.9070081 C49.4305393,52.2639312 49.7187512,52.4423928 50.2962346,52.4423928 L54.1839167,52.4423928 C54.6543803,52.4423928 55.0199432,52.311171 55.2795459,52.0487276 C55.5147777,51.7757864 55.6853737,50.9097231 55.791334,49.4494878 L56.9749101,49.8263566 C56.833983,51.5490353 56.5457711,52.5893611 56.1092148,52.9462842 C55.6970293,53.2822118 55.0549101,53.4606733 54.1839167,53.4827186 L49.9953075,53.4827186 C48.6994134,53.4827186 48.0519962,53.0250172 48.0519962,52.111714 C48.0519962,51.7757864 48.2109366,51.402067 48.5288174,50.993705 C48.8350426,50.4992615 49.4538505,49.7644199 50.3841816,48.7870805 C51.2678903,47.8412344 52.2628571,46.8754425 53.3712015,45.8886552 L48.3168969,45.8886552 L48.3168969,44.8168362 Z M49.1476254,42.4369991 C48.6411353,43.193886 48.0806055,43.8814878 47.4681552,44.5019041 L46.6384863,43.634791 C47.8040492,42.4999855 48.7587512,41.0303023 49.500473,39.2236416 L50.6851088,39.458791 C50.3545128,40.2461213 50.0599432,40.8728362 49.8014002,41.3347367 L56.6040492,41.3347367 L56.6040492,42.4369991 L49.1476254,42.4369991 Z M42.8737181,50.079352 L45.1889499,50.079352 L45.1889499,41.6339222 L42.8737181,41.6339222 L42.8737181,50.079352 Z M46.4085525,40.5621032 L46.4085525,52.111714 L45.1889499,52.111714 L45.1889499,51.1501213 L42.8737181,51.1501213 L42.8737181,52.4906824 L41.6371618,52.4906824 L41.6371618,40.5621032 L46.4085525,40.5621032 Z" id="Fill-7" stroke="#FF8800" stroke-width="0.2"></path>
                <path d="M70.4081135,50.488029 L69.7712923,49.7794317 C70.8436102,49.1495674 71.574736,48.2992507 71.9625506,47.2274317 L72.9702327,47.3681014 C72.8526168,47.7145267 72.7106301,48.0305086 72.5463917,48.3139475 C73.3474513,48.6813683 74.1124844,49.1338208 74.8436102,49.6692054 L74.2597692,50.488029 C73.5646698,49.9316489 72.8293056,49.4550516 72.0515572,49.0550878 C71.6150009,49.6114679 71.068246,50.0891149 70.4081135,50.488029 L70.4081135,50.488029 Z M69.2944711,43.917495 L74.7016235,43.917495 L74.7016235,42.7364995 L69.2944711,42.7364995 L69.2944711,43.917495 Z M69.2944711,41.9008796 L74.7016235,41.9008796 L74.7016235,40.688391 L69.2944711,40.688391 L69.2944711,41.9008796 Z M68.0748685,48.0945448 L69.241491,48.0945448 L69.241491,51.0559566 L73.7479811,51.0559566 L73.7479811,52.0007529 L68.0748685,52.0007529 L68.0748685,48.0945448 Z M68.1458619,39.7908344 L75.8502327,39.7908344 L75.8502327,44.831848 L70.6020208,44.831848 C70.4134115,45.1782733 70.2078486,45.5215493 69.9842725,45.8564271 L76.8399016,45.8564271 C76.7689082,49.4802462 76.6756632,51.5755946 76.5569877,52.1435222 C76.4160605,52.752391 76.1564579,53.1618027 75.780299,53.3728072 C75.414736,53.59221 74.6073188,53.703486 73.3591069,53.703486 L72.7932791,53.703486 L72.4753983,52.7576398 C73.0168553,52.7786353 73.4173851,52.7880833 73.6769877,52.7880833 C74.3837427,52.7880833 74.8489082,52.6894045 75.0724844,52.4899475 C75.2610937,52.2904905 75.3914248,51.949314 75.4624182,51.4664181 C75.4973851,50.9614769 75.5503652,49.4120109 75.620299,46.8169701 L69.153544,46.8169701 C68.5410937,47.3953955 67.8640076,47.8992869 67.1212261,48.3296941 L66.5024182,47.4321376 C67.8332791,46.7592326 68.8293056,45.8931692 69.489438,44.831848 L68.1458619,44.831848 L68.1458619,39.7908344 Z M63.0926168,50.0156308 L65.3008288,50.0156308 L65.3008288,41.6342371 L63.0926168,41.6342371 L63.0926168,50.0156308 Z M66.4674513,40.5928615 L66.4674513,51.8747801 L65.3008288,51.8747801 L65.3008288,51.0559566 L63.0926168,51.0559566 L63.0926168,52.2065086 L61.8899678,52.2065086 L61.8899678,40.5928615 L66.4674513,40.5928615 Z" id="Fill-9" stroke="#FF8800" stroke-width="0.2"></path>
                <path d="M88.523701,41.2873919 L96.7938997,41.2873919 L96.7938997,40.1998262 L88.523701,40.1998262 L88.523701,41.2873919 Z M90.2201249,45.745781 L87.9048931,45.745781 L87.9048931,44.6277719 L97.3586679,44.6277719 L97.3586679,45.745781 L94.8315156,45.745781 L94.8315156,51.7641339 C94.8315156,52.2165864 95.0381381,52.4422878 95.4503236,52.4422878 L95.945158,52.4422878 C96.1570785,52.4422878 96.3160189,52.3793014 96.4219792,52.2533285 C96.6105885,52.0864145 96.7282044,51.3295276 96.7758865,49.9847674 L97.9594626,50.3469394 C97.8291315,51.8817086 97.6532375,52.7887131 97.4286017,53.072152 C97.1817143,53.346143 96.7758865,53.4826136 96.2100587,53.4826136 L95.0434361,53.4826136 C94.5486017,53.4826136 94.1777408,53.346143 93.9308534,53.072152 C93.6712507,52.8002606 93.5419792,52.4475367 93.5419792,52.0171294 L93.5419792,45.745781 L91.4386679,45.745781 L91.4386679,46.8490932 C91.3793302,49.9375276 89.8482044,52.2008398 86.8442308,53.6400796 L85.8905885,52.8989394 C88.729264,51.6381611 90.1724428,49.6215457 90.2201249,46.8490932 L90.2201249,45.745781 Z M84.1411845,41.5078443 L81.9138997,41.5078443 L81.9138997,40.4528217 L87.6569461,40.4528217 L87.6569461,41.5078443 L85.4307209,41.5078443 L85.4307209,45.0529303 L87.2860851,45.0529303 L87.2860851,46.0775095 L85.4307209,46.0775095 L85.4307209,49.6540887 C86.0548269,49.4441339 86.8209196,49.1659439 87.7279395,48.8195186 L87.7279395,49.9690208 C86.0548269,50.6524235 84.187807,51.27179 82.1268798,51.8281701 L81.7549593,50.6776181 C82.7329726,50.4361701 83.5276746,50.2251656 84.1411845,50.0477538 L84.1411845,46.0775095 L82.1618467,46.0775095 L82.1618467,45.0529303 L84.1411845,45.0529303 L84.1411845,41.5078443 Z" id="Fill-11" stroke="#FF8800" stroke-width="0.2"></path>
                <path d="M115.420216,46.2346606 L117.134653,45.8882353 C117.040348,45.5523077 116.886706,45.068362 116.674785,44.4384977 C116.285911,45.0893575 115.867368,45.6877285 115.420216,46.2346606 L115.420216,46.2346606 Z M117.4875,44.0280362 C117.876375,45.0368688 118.230282,46.2031674 118.548163,47.5258824 L117.628428,47.731638 L117.363527,46.659819 C116.492534,46.8802715 115.373593,47.1227692 114.006706,47.3852127 L113.776772,46.659819 C114.566176,45.8934842 115.296242,44.8909502 115.96803,43.6501176 C115.190282,43.8191312 114.506838,43.9556018 113.918759,44.0605792 L113.723792,43.2396561 C114.053328,43.0632941 114.625514,41.843457 115.438229,39.5853937 L116.462865,39.9160724 C115.921408,41.2818281 115.455183,42.3064072 115.067368,42.9887602 L116.479818,42.6580814 C116.787103,41.9652308 117.022335,41.3983529 117.187633,40.9563982 L118.177302,41.2240905 C117.764057,42.3274027 117.305249,43.3299367 116.798759,44.2337919 L117.4875,44.0280362 Z M109.83611,46.0918914 L112.151342,46.0918914 L112.151342,44.4070045 L109.83611,44.4070045 L109.83611,46.0918914 Z M109.83611,43.4926516 L112.151342,43.4926516 L112.151342,41.8224615 L109.83611,41.8224615 L109.83611,43.4926516 Z M107.503924,44.1393122 C107.927765,45.2006335 108.292269,46.3606335 108.599553,47.6214118 L107.680878,47.8271674 L107.362997,46.659819 C106.254653,46.901267 105.053063,47.1322172 103.757169,47.3526697 L103.527236,46.6283258 C104.387633,45.8189502 105.165381,44.8059186 105.860481,43.588181 C105.000083,43.7655928 104.205381,43.91781 103.475315,44.0437828 L103.280348,43.226009 C103.669222,43.0569955 104.375977,41.834009 105.400613,39.5549502 L106.426308,39.8845792 C105.75452,41.2923258 105.19505,42.316905 104.746838,42.957267 C105.347633,42.8312941 105.895447,42.7053213 106.390282,42.5793484 C106.472931,42.4113846 106.71452,41.8655023 107.11505,40.9406516 L108.086706,41.1915475 C107.239024,43.3036923 106.254653,44.9843801 105.135712,46.2346606 C106.007765,46.0666968 106.66154,45.9354751 107.098096,45.8409955 C106.991077,45.5145158 106.820481,45.0368688 106.585249,44.4070045 L107.503924,44.1393122 Z M108.652534,40.9091584 L109.99505,40.9091584 C110.242997,40.3842715 110.436904,39.8425882 110.578891,39.2862081 L111.762467,39.4289774 C111.632136,39.8898281 111.432931,40.3842715 111.161673,40.9091584 L113.317964,40.9091584 L113.317964,47.0062443 L111.603527,47.0062443 L111.603527,48.3929955 L118.601143,48.3929955 L118.601143,49.4501176 L112.911077,49.4501176 C114.230282,50.7518371 116.285911,51.7806154 119.077964,52.5375023 L118.495183,53.6408145 C115.350282,52.5689955 113.11664,51.1717466 111.798494,49.4501176 L111.603527,49.4501176 L111.603527,53.7027511 L110.330944,53.7027511 L110.330944,49.4501176 L110.137037,49.4501176 C109.005381,51.0457738 106.826838,52.4314751 103.598229,53.6082715 L102.87452,52.5532489 C105.88909,51.6378462 107.945779,50.6048688 109.041408,49.4501176 L103.316375,49.4501176 L103.316375,48.3929955 L110.330944,48.3929955 L110.330944,47.0062443 L108.652534,47.0062443 L108.652534,40.9091584 Z" id="Fill-13" stroke="#FF8800" stroke-width="0.2"></path>
                <path d="M138.041234,42.4998805 C137.523088,43.7081701 136.822691,44.9280072 135.938982,46.1551928 L134.807326,45.6355548 C135.679379,44.3852742 136.368121,43.1780344 136.874611,42.0117357 L138.041234,42.4998805 Z M126.856068,42.0904688 C127.538452,43.2158262 128.175273,44.4167674 128.764412,45.6985412 L127.579777,46.2181792 C126.990638,44.8839167 126.354876,43.6819258 125.671432,42.6101068 L126.856068,42.0904688 Z M124.699777,39.9804235 L138.977922,39.9804235 L138.977922,41.0816362 L132.404148,41.0816362 L132.404148,47.0380525 L139.649711,47.0380525 L139.649711,48.1245683 L132.404148,48.1245683 L132.404148,53.7030661 L131.096598,53.7030661 L131.096598,48.1245683 L123.993022,48.1245683 L123.993022,47.0380525 L131.096598,47.0380525 L131.096598,41.0816362 L124.699777,41.0816362 L124.699777,39.9804235 Z" id="Fill-15" stroke="#FF8800" stroke-width="0.2"></path>
                <path d="M147.356821,51.8596633 L156.580662,51.8596633 L156.580662,48.2505412 L147.356821,48.2505412 L147.356821,51.8596633 Z M157.870199,47.1629756 L157.870199,53.7345593 L156.580662,53.7345593 L156.580662,52.9461792 L147.356821,52.9461792 L147.356821,53.7345593 L146.067285,53.7345593 L146.067285,47.1629756 L157.870199,47.1629756 Z M144.564768,44.4692561 C146.119205,43.9968579 148.045563,42.2542335 150.342781,39.2392833 L151.650331,39.6329484 C150.059868,41.6495638 148.464106,43.2462697 146.861987,44.4230661 C150.030199,44.307591 153.246093,44.1133828 156.510728,43.8393919 C155.791258,42.9365864 155.101457,42.1429575 154.442384,41.4606045 L155.590993,40.9724597 C157.098808,42.5376724 158.512318,44.2802968 159.832583,46.2024326 L158.594967,46.738867 C158.371391,46.4029394 157.934834,45.7772742 157.287417,44.863971 C153.670993,45.1579077 149.513113,45.383609 144.811656,45.5410751 L144.564768,44.4692561 Z" id="Fill-16" stroke="#FF8800" stroke-width="0.2"></path>
                <path d="M0.975788079,14.6696434 L0.975788079,14.5888109 C0.975788079,6.56958914 7.49128477,0.000104977376 16.4036026,0.000104977376 C20.8592318,0.000104977376 23.8017483,0.966946606 26.450755,2.74106425 C27.0812185,3.18406878 27.7964503,4.03018643 27.7964503,5.23952579 C27.7964503,6.93176109 26.3659868,8.30276561 24.6006887,8.30276561 C23.6756556,8.30276561 23.0875762,7.97943529 22.6255894,7.65715475 C20.8592318,6.44886516 18.9678411,5.72347149 16.1938013,5.72347149 C11.4849272,5.72347149 7.7434702,9.71261176 7.7434702,14.5090281 L7.7434702,14.5888109 C7.7434702,19.7473991 11.442543,23.5360326 16.6557881,23.5360326 C19.0102252,23.5360326 21.1114172,22.9723041 22.7516821,21.8437973 L22.7516821,17.8126661 L18.3797616,17.8126661 C16.8242649,17.8126661 15.5633377,16.6442679 15.5633377,15.1535891 C15.5633377,13.6618606 16.8242649,12.453571 18.3797616,12.453571 L25.7779073,12.453571 C27.5855894,12.453571 29.0149934,13.822476 29.0149934,15.5567023 L29.0149934,22.4075258 C29.0149934,24.2215348 28.3008212,25.4707656 26.7453245,26.3578244 C24.3485033,27.7687204 20.8592318,29.1785665 16.4459868,29.1785665 C7.28148344,29.1785665 0.975788079,23.0121955 0.975788079,14.6696434" id="Fill-17"></path>
                <path d="M56.3389669,14.6696434 L56.3389669,14.5888109 C56.3389669,9.75250317 52.639894,5.72347149 47.426649,5.72347149 C42.2144636,5.72347149 38.5990993,9.67167059 38.5990993,14.5090281 L38.5990993,14.5888109 C38.5990993,19.4251186 42.2992318,23.4552 47.5103576,23.4552 C52.7236026,23.4552 56.3389669,19.5059511 56.3389669,14.6696434 M31.8314172,14.6696434 L31.8314172,14.5888109 C31.8314172,6.56958914 38.4306225,0.000104977376 47.5103576,0.000104977376 C56.5911523,0.000104977376 63.106649,6.48875656 63.106649,14.5090281 L63.106649,14.5888109 C63.106649,22.6090824 56.5074437,29.1785665 47.426649,29.1785665 C38.3469139,29.1785665 31.8314172,22.6899149 31.8314172,14.6696434" id="Fill-18"></path>
                <path d="M66.7648212,3.42562172 C66.7648212,1.69349502 68.1942252,0.322490498 70.0019073,0.322490498 L70.7171391,0.322490498 C72.1041589,0.322490498 73.0705166,1.00694299 73.658596,1.93494299 L81.4784636,14.1459113 L89.338596,1.89400181 C90.0114437,0.846327602 90.9364768,0.322490498 92.2397881,0.322490498 L92.9539603,0.322490498 C94.7616424,0.322490498 96.1910464,1.69349502 96.1910464,3.42562172 L96.1910464,25.8340923 C96.1910464,27.566219 94.7616424,28.9372235 92.9539603,28.9372235 C91.1886623,28.9372235 89.7592583,27.5263276 89.7592583,25.8340923 L89.7592583,11.7681738 L84.0840265,20.151667 C83.4111788,21.1185086 82.5709139,21.7231783 81.3936954,21.7231783 C80.2164768,21.7231783 79.3762119,21.1185086 78.7033642,20.151667 L73.1129007,11.8899475 L73.1129007,25.9138751 C73.1129007,27.6061104 71.6834967,28.9372235 69.9181987,28.9372235 C68.1518411,28.9372235 66.7648212,27.6061104 66.7648212,25.9138751 L66.7648212,3.42562172 Z" id="Fill-19"></path>
                <path d="M117.713695,16.8860308 L113.636344,7.5766371 L109.558993,16.8860308 L117.713695,16.8860308 Z M99.5118411,24.7047457 L109.768795,2.49888145 C110.484026,0.967261538 111.786278,0.0403113122 113.552636,0.0403113122 L113.930914,0.0403113122 C115.696212,0.0403113122 116.957139,0.967261538 117.671311,2.49888145 L127.929325,24.7047457 C128.139126,25.1477502 128.265219,25.5508633 128.265219,25.9550262 C128.265219,27.6063204 126.919523,28.9363837 125.196609,28.9363837 C123.683497,28.9363837 122.674755,28.0913158 122.085616,26.8011439 L120.110517,22.3679493 L107.162172,22.3679493 L105.103364,27.0027005 C104.556609,28.21099 103.463099,28.9363837 102.118464,28.9363837 C100.436874,28.9363837 99.1335629,27.6472615 99.1335629,26.0358588 C99.1335629,25.5918045 99.3020397,25.1477502 99.5118411,24.7047457 L99.5118411,24.7047457 Z" id="Fill-20"></path>
                <path d="M130.156715,26.6394787 C129.483868,26.1565828 128.938172,25.2285828 128.938172,24.2606914 C128.938172,22.6093973 130.282808,21.2803837 132.006781,21.2803837 C132.805722,21.2803837 133.310093,21.4808905 133.940556,21.923895 C135.243868,22.851895 136.378702,23.3358407 137.84943,23.3358407 C140.372344,23.3358407 141.885457,21.923895 141.885457,18.6590986 L141.885457,3.3449991 C141.885457,1.61182262 143.314861,0.241867873 145.122543,0.241867873 C146.930225,0.241867873 148.359629,1.61182262 148.359629,3.3449991 L148.359629,18.9414878 C148.359629,22.2871167 147.350887,24.7845285 145.58453,26.4788633 C143.776848,28.21099 141.128901,29.0980489 137.934199,29.0980489 C134.57102,29.0980489 132.006781,28.0094335 130.156715,26.6394787" id="Fill-21"></path>
                <path d="M153.151364,3.34457919 C153.151364,1.61245249 154.580768,0.241447964 156.38845,0.241447964 C158.196132,0.241447964 159.624477,1.61245249 159.624477,3.34457919 L159.624477,25.8338824 C159.624477,27.566009 158.196132,28.9370136 156.38845,28.9370136 C154.580768,28.9370136 153.151364,27.566009 153.151364,25.8338824 L153.151364,3.34457919 Z" id="Fill-22"></path>
            </g>
        </g>
    </g>
</svg>